<svg xmlns="http://www.w3.org/2000/svg" xmlns:xlink="http://www.w3.org/1999/xlink" viewBox="0 0 183.77 188.82"><defs><style>.cls-1{fill:url(#Degradado_sin_nombre_158);}.cls-2{fill:#e4ae60;}</style><linearGradient id="Degradado_sin_nombre_158" x1="11.58" y1="47.32" x2="172.88" y2="140.45" gradientUnits="userSpaceOnUse"><stop offset="0" stop-color="#f6bc67"/><stop offset="0.5" stop-color="#836135"/><stop offset="1" stop-color="#cb9b55"/></linearGradient></defs><title>bateonicon</title><g id="Capa_2" data-name="Capa 2"><g id="Capa_1-2" data-name="Capa 1"><path class="cls-1" d="M168.76,40.82A92.27,92.27,0,0,0,91.89,0C53.42.24,28.56,25.19,25.76,28.09,1.05,53.69-.12,84.8,0,94.75a96.1,96.1,0,0,0,18,54.67c3.79,5.21,29.33,39.12,74.13,39.4,2.82,0,44.31-.43,71.61-34.57,19.24-24.05,19.91-50.46,20-59.5C183.86,86.17,183.8,63.51,168.76,40.82Zm-21.5,122.93c-29.5,23-62.82,17.83-70.83,16.45-8.26-1.42-29.43-5.36-47.29-23.57C5.43,132.45,5.84,101.78,6,96.32,7,63.51,27.24,43,33,37.25c4.43-4.36,32.72-31.35,71.88-26.37,41.48,5.28,75.8,44,75.75,86.37C180.59,137,150.34,161.36,147.26,163.75Z"/><path class="cls-2" d="M155.34,94.25s-1.92-7.94-6.88-13.48a23.81,23.81,0,0,0-2.66-2.52l-.61-.6q-.34-.34-.66-.63a9.51,9.51,0,0,0-1-.77c-.47-.34-1.54-1.17-4-3.19a132.82,132.82,0,0,1-35.4,8.11,134.21,134.21,0,0,1-54.5-6.58,83.87,83.87,0,0,0,8.91-9.84c3.06-4,5.66-7.33,7.92-12.5,3.47-7.92,3.91-14.93,4.21-19.68,0-.76.22-3.57,0-3.6a15.27,15.27,0,0,0-.79,3.3,88.4,88.4,0,0,1-3.76,12.48C61.93,56.2,50.9,65.52,49.51,66.67c-3.7,3.07-6.06,4.25-10,8.5a61.45,61.45,0,0,0-6.75,9C29.68,88.82,27.27,94.4,27,97.34c0,.16-.15,1.33-.28,2.83-.07.84-.14,1.66-.2,2.67a28.31,28.31,0,0,0-.13,3.21,57.73,57.73,0,0,0,1.27,12,37.9,37.9,0,0,0,4.57,10.35c7.36,11.51,19.4,15.29,21.83,16a35.31,35.31,0,0,0,20,.42,25.58,25.58,0,0,0,7.89-3.65c7.24-5.07,9.38-12.78,10.1-15.69a24.32,24.32,0,0,0,19.09,19.84,32.81,32.81,0,0,0,17.25-.5,34,34,0,0,0,14.34-7.17,34.89,34.89,0,0,0,8.91-12.58,48.09,48.09,0,0,0,4.17-16.59C156.23,103.81,156.65,99.65,155.34,94.25Zm-64.13,29a8.79,8.79,0,0,1-.74,1.81,12.42,12.42,0,0,1-.75,1.12c-.25.34-.46.59-.55.71a59.11,59.11,0,0,1-4.86,5.6A24.07,24.07,0,0,1,76.05,138a25.5,25.5,0,0,1-8.36,1.43,37.21,37.21,0,0,1-8.16-.46,31.28,31.28,0,0,1-24.62-21.12c-2.25-7.31-1-13.84-.16-18.35a40.89,40.89,0,0,1,1-4.09,41.47,41.47,0,0,1,9.87-16.75A80.67,80.67,0,0,1,62,84.21c5.8,2.69,15.55,7.24,21.89,16.23a47.23,47.23,0,0,1,4.68,8.63c.41,1,1.07,3.44,2.38,8.31A12.28,12.28,0,0,1,91.21,123.29Zm61.2-17.13a40.58,40.58,0,0,1-1.5,9.25A38.52,38.52,0,0,1,146,125.66a33.26,33.26,0,0,1-9.41,9.84,30.89,30.89,0,0,1-11.56,4.78,29.86,29.86,0,0,1-12.72-.37,35.87,35.87,0,0,1-13.75-7.28,19.85,19.85,0,0,1-1.46-1.44,22.69,22.69,0,0,1-3-3.9,11.8,11.8,0,0,1-1.25-6.08c.11-8.51,7.47-17.66,11.29-22.32a49.75,49.75,0,0,1,5.41-6,53.5,53.5,0,0,1,16.09-10.06c2.86-1.17,6.73-2.4,9.35-3.25,3.41-1.1,6.26-1.93,8.26-2.5a32.73,32.73,0,0,1,5.83,8.47,36.55,36.55,0,0,1,3.06,10.75A44.1,44.1,0,0,1,152.41,106.16Z"/></g></g></svg>