<svg width="425" height="141" viewBox="0 0 425 141" fill="none" xmlns="http://www.w3.org/2000/svg">
<g clip-path="url(#clip0_127_2916)">
<path opacity="0.3" d="M428 39.6353V134.305C428 136.205 428 141 428 141C428 141 423.133 141 421.277 141H4.03393C2.55482 141 1.21018 140.464 0 139.661C54.727 137.385 267.584 123.191 428 39.6353Z" fill="#DE5738"/>
<path opacity="0.3" d="M428 0V134.305C428 136.205 428 141 428 141C428 141 423.133 141 421.277 141H236.657C280.089 125.601 364.802 86.5014 428 0Z" fill="#DE5738"/>
<path opacity="0.3" d="M428 50.0798V134.439C428 136.339 428 141.134 428 141.134C428 141.134 423.133 141.134 421.277 141.134H164.45C324.194 126.539 402.183 71.7721 428 50.0798Z" fill="#DE5738"/>
<path opacity="0.3" d="M428 55.7036V134.305C428 136.205 428 141 428 141C428 141 423.133 141 421.277 141C417.512 141 329.438 141 329.438 141C385.106 118.772 415.495 77.1281 428 55.7036Z" fill="#DE5738"/>
</g>
<defs>
<clipPath id="clip0_127_2916">
<rect width="428" height="141" fill="white"/>
</clipPath>
</defs>
</svg>
